<svg width="230" height="39" viewBox="0 0 230 39" fill="none" xmlns="http://www.w3.org/2000/svg">
<path d="M13.12 29L7.864 19.46H6.388V29H0.232V3.728H10.564C12.556 3.728 14.248 4.076 15.64 4.772C17.056 5.468 18.112 6.428 18.808 7.652C19.504 8.852 19.852 10.196 19.852 11.684C19.852 13.364 19.372 14.864 18.412 16.184C17.476 17.504 16.084 18.44 14.236 18.992L20.068 29H13.12ZM6.388 15.104H10.204C11.332 15.104 12.172 14.828 12.724 14.276C13.3 13.724 13.588 12.944 13.588 11.936C13.588 10.976 13.3 10.22 12.724 9.668C12.172 9.116 11.332 8.84 10.204 8.84H6.388V15.104ZM32.8604 29.288C30.8924 29.288 29.1164 28.868 27.5324 28.028C25.9724 27.188 24.7364 25.988 23.8244 24.428C22.9364 22.868 22.4924 21.044 22.4924 18.956C22.4924 16.892 22.9484 15.08 23.8604 13.52C24.7724 11.936 26.0204 10.724 27.6044 9.884C29.1884 9.044 30.9644 8.624 32.9324 8.624C34.9004 8.624 36.6764 9.044 38.2604 9.884C39.8444 10.724 41.0924 11.936 42.0044 13.52C42.9164 15.08 43.3724 16.892 43.3724 18.956C43.3724 21.02 42.9044 22.844 41.9684 24.428C41.0564 25.988 39.7964 27.188 38.1884 28.028C36.6044 28.868 34.8284 29.288 32.8604 29.288ZM32.8604 23.96C34.0364 23.96 35.0324 23.528 35.8484 22.664C36.6884 21.8 37.1084 20.564 37.1084 18.956C37.1084 17.348 36.7004 16.112 35.8844 15.248C35.0924 14.384 34.1084 13.952 32.9324 13.952C31.7324 13.952 30.7364 14.384 29.9444 15.248C29.1524 16.088 28.7564 17.324 28.7564 18.956C28.7564 20.564 29.1404 21.8 29.9084 22.664C30.7004 23.528 31.6844 23.96 32.8604 23.96ZM67.1583 8.912L54.5583 38.54H47.9343L52.5423 28.316L44.3702 8.912H51.2463L55.8903 21.476L60.4983 8.912H67.1583ZM68.1603 18.92C68.1603 16.856 68.5443 15.044 69.3123 13.484C70.1043 11.924 71.1723 10.724 72.5163 9.884C73.8603 9.044 75.3603 8.624 77.0163 8.624C78.4323 8.624 79.6683 8.912 80.7243 9.488C81.8043 10.064 82.6323 10.82 83.2083 11.756V8.912H89.3643V29H83.2083V26.156C82.6083 27.092 81.7683 27.848 80.6883 28.424C79.6323 29 78.3963 29.288 76.9803 29.288C75.3483 29.288 73.8603 28.868 72.5163 28.028C71.1723 27.164 70.1043 25.952 69.3123 24.392C68.5443 22.808 68.1603 20.984 68.1603 18.92ZM83.2083 18.956C83.2083 17.42 82.7763 16.208 81.9123 15.32C81.0723 14.432 80.0403 13.988 78.8163 13.988C77.5923 13.988 76.5483 14.432 75.6843 15.32C74.8443 16.184 74.4243 17.384 74.4243 18.92C74.4243 20.456 74.8443 21.68 75.6843 22.592C76.5483 23.48 77.5923 23.924 78.8163 23.924C80.0403 23.924 81.0723 23.48 81.9123 22.592C82.7763 21.704 83.2083 20.492 83.2083 18.956ZM99.9739 2.36V29H93.8179V2.36H99.9739ZM111.02 16.328C111.02 13.832 111.56 11.612 112.64 9.668C113.72 7.7 115.22 6.176 117.14 5.096C119.084 3.992 121.28 3.44 123.728 3.44C126.728 3.44 129.296 4.232 131.432 5.816C133.568 7.4 134.996 9.56 135.716 12.296H128.948C128.444 11.24 127.724 10.436 126.788 9.884C125.876 9.332 124.832 9.056 123.656 9.056C121.76 9.056 120.224 9.716 119.048 11.036C117.872 12.356 117.284 14.12 117.284 16.328C117.284 18.536 117.872 20.3 119.048 21.62C120.224 22.94 121.76 23.6 123.656 23.6C124.832 23.6 125.876 23.324 126.788 22.772C127.724 22.22 128.444 21.416 128.948 20.36H135.716C134.996 23.096 133.568 25.256 131.432 26.84C129.296 28.4 126.728 29.18 123.728 29.18C121.28 29.18 119.084 28.64 117.14 27.56C115.22 26.456 113.72 24.932 112.64 22.988C111.56 21.044 111.02 18.824 111.02 16.328ZM148.63 29.288C146.662 29.288 144.886 28.868 143.302 28.028C141.742 27.188 140.506 25.988 139.594 24.428C138.706 22.868 138.262 21.044 138.262 18.956C138.262 16.892 138.718 15.08 139.63 13.52C140.542 11.936 141.79 10.724 143.374 9.884C144.958 9.044 146.734 8.624 148.702 8.624C150.67 8.624 152.446 9.044 154.03 9.884C155.614 10.724 156.862 11.936 157.774 13.52C158.686 15.08 159.142 16.892 159.142 18.956C159.142 21.02 158.674 22.844 157.738 24.428C156.826 25.988 155.566 27.188 153.958 28.028C152.374 28.868 150.598 29.288 148.63 29.288ZM148.63 23.96C149.806 23.96 150.802 23.528 151.618 22.664C152.458 21.8 152.878 20.564 152.878 18.956C152.878 17.348 152.47 16.112 151.654 15.248C150.862 14.384 149.878 13.952 148.702 13.952C147.502 13.952 146.506 14.384 145.714 15.248C144.922 16.088 144.526 17.324 144.526 18.956C144.526 20.564 144.91 21.8 145.678 22.664C146.47 23.528 147.454 23.96 148.63 23.96ZM172.488 14.024H169.176V29H163.02V14.024H160.788V8.912H163.02V8.336C163.02 5.864 163.728 3.992 165.144 2.72C166.56 1.424 168.636 0.775999 171.372 0.775999C171.828 0.775999 172.164 0.787998 172.38 0.811998V6.032C171.204 5.96 170.376 6.128 169.896 6.536C169.416 6.944 169.176 7.676 169.176 8.732V8.912H172.488V14.024ZM185.46 14.024H182.148V29H175.992V14.024H173.76V8.912H175.992V8.336C175.992 5.864 176.7 3.992 178.116 2.72C179.532 1.424 181.608 0.775999 184.344 0.775999C184.8 0.775999 185.136 0.787998 185.352 0.811998V6.032C184.176 5.96 183.348 6.128 182.868 6.536C182.388 6.944 182.148 7.676 182.148 8.732V8.912H185.46V14.024ZM207.289 18.632C207.289 19.208 207.253 19.808 207.181 20.432H193.249C193.345 21.68 193.741 22.64 194.437 23.312C195.157 23.96 196.033 24.284 197.065 24.284C198.601 24.284 199.669 23.636 200.269 22.34H206.821C206.485 23.66 205.873 24.848 204.985 25.904C204.121 26.96 203.029 27.788 201.709 28.388C200.389 28.988 198.913 29.288 197.281 29.288C195.313 29.288 193.561 28.868 192.025 28.028C190.489 27.188 189.289 25.988 188.425 24.428C187.561 22.868 187.129 21.044 187.129 18.956C187.129 16.868 187.549 15.044 188.389 13.484C189.253 11.924 190.453 10.724 191.989 9.884C193.525 9.044 195.289 8.624 197.281 8.624C199.225 8.624 200.953 9.032 202.465 9.848C203.977 10.664 205.153 11.828 205.993 13.34C206.857 14.852 207.289 16.616 207.289 18.632ZM200.989 17.012C200.989 15.956 200.629 15.116 199.909 14.492C199.189 13.868 198.289 13.556 197.209 13.556C196.177 13.556 195.301 13.856 194.581 14.456C193.885 15.056 193.453 15.908 193.285 17.012H200.989ZM229.473 18.632C229.473 19.208 229.437 19.808 229.365 20.432H215.433C215.529 21.68 215.925 22.64 216.621 23.312C217.341 23.96 218.217 24.284 219.249 24.284C220.785 24.284 221.853 23.636 222.453 22.34H229.005C228.669 23.66 228.057 24.848 227.169 25.904C226.305 26.96 225.213 27.788 223.893 28.388C222.573 28.988 221.097 29.288 219.465 29.288C217.497 29.288 215.745 28.868 214.209 28.028C212.673 27.188 211.473 25.988 210.609 24.428C209.745 22.868 209.313 21.044 209.313 18.956C209.313 16.868 209.733 15.044 210.573 13.484C211.437 11.924 212.637 10.724 214.173 9.884C215.709 9.044 217.473 8.624 219.465 8.624C221.409 8.624 223.137 9.032 224.649 9.848C226.161 10.664 227.337 11.828 228.177 13.34C229.041 14.852 229.473 16.616 229.473 18.632ZM223.173 17.012C223.173 15.956 222.813 15.116 222.093 14.492C221.373 13.868 220.473 13.556 219.393 13.556C218.361 13.556 217.485 13.856 216.765 14.456C216.069 15.056 215.637 15.908 215.469 17.012H223.173Z" fill="#F5F7FA"/>
</svg>
