<svg width="24" height="24" viewBox="0 0 24 24" fill="none" xmlns="http://www.w3.org/2000/svg">
<path d="M19.875 21C17.8417 21 15.8208 20.5 13.8125 19.5C11.8042 18.5 10 17.2 8.4 15.6C6.8 14 5.5 12.1958 4.5 10.1875C3.5 8.17917 3 6.15833 3 4.125C3 3.80833 3.10833 3.54167 3.325 3.325C3.54167 3.10833 3.80833 3 4.125 3H7.625C7.85833 3 8.0625 3.07917 8.2375 3.2375C8.4125 3.39583 8.525 3.60833 8.575 3.875L9.25 7.025C9.28333 7.25833 9.27917 7.47083 9.2375 7.6625C9.19583 7.85417 9.10833 8.01667 8.975 8.15L6.475 10.675C7.40833 12.225 8.45417 13.575 9.6125 14.725C10.7708 15.875 12.0833 16.85 13.55 17.65L15.925 15.2C16.0917 15.0167 16.2833 14.8875 16.5 14.8125C16.7167 14.7375 16.9333 14.725 17.15 14.775L20.125 15.425C20.375 15.475 20.5833 15.6 20.75 15.8C20.9167 16 21 16.2333 21 16.5V19.875C21 20.1917 20.8917 20.4583 20.675 20.675C20.4583 20.8917 20.1917 21 19.875 21Z" fill="#0B0C12"/>
</svg>
