<svg width="180" height="30" viewBox="0 0 180 30" fill="none" xmlns="http://www.w3.org/2000/svg">
<path d="M10.76 22L6.672 14.58H5.524V22H0.736V2.344H8.772C10.3213 2.344 11.6373 2.61467 12.72 3.156C13.8213 3.69733 14.6427 4.444 15.184 5.396C15.7253 6.32933 15.996 7.37467 15.996 8.532C15.996 9.83867 15.6227 11.0053 14.876 12.032C14.148 13.0587 13.0653 13.7867 11.628 14.216L16.164 22H10.76ZM5.524 11.192H8.492C9.36933 11.192 10.0227 10.9773 10.452 10.548C10.9 10.1187 11.124 9.512 11.124 8.728C11.124 7.98133 10.9 7.39333 10.452 6.964C10.0227 6.53467 9.36933 6.32 8.492 6.32H5.524V11.192ZM26.1136 22.224C24.583 22.224 23.2016 21.8973 21.9696 21.244C20.7563 20.5907 19.795 19.6573 19.0856 18.444C18.395 17.2307 18.0496 15.812 18.0496 14.188C18.0496 12.5827 18.4043 11.1733 19.1136 9.96C19.823 8.728 20.7936 7.78533 22.0256 7.132C23.2576 6.47867 24.639 6.152 26.1696 6.152C27.7003 6.152 29.0816 6.47867 30.3136 7.132C31.5456 7.78533 32.5163 8.728 33.2256 9.96C33.935 11.1733 34.2896 12.5827 34.2896 14.188C34.2896 15.7933 33.9256 17.212 33.1976 18.444C32.4883 19.6573 31.5083 20.5907 30.2576 21.244C29.0256 21.8973 27.6443 22.224 26.1136 22.224ZM26.1136 18.08C27.0283 18.08 27.803 17.744 28.4376 17.072C29.091 16.4 29.4176 15.4387 29.4176 14.188C29.4176 12.9373 29.1003 11.976 28.4656 11.304C27.8496 10.632 27.0843 10.296 26.1696 10.296C25.2363 10.296 24.4616 10.632 23.8456 11.304C23.2296 11.9573 22.9216 12.9187 22.9216 14.188C22.9216 15.4387 23.2203 16.4 23.8176 17.072C24.4336 17.744 25.199 18.08 26.1136 18.08ZM52.7898 6.376L42.9898 29.42H37.8378L41.4218 21.468L35.0657 6.376H40.4138L44.0258 16.148L47.6098 6.376H52.7898ZM53.5692 14.16C53.5692 12.5547 53.8678 11.1453 54.4652 9.932C55.0812 8.71867 55.9118 7.78533 56.9572 7.132C58.0025 6.47867 59.1692 6.152 60.4572 6.152C61.5585 6.152 62.5198 6.376 63.3412 6.824C64.1812 7.272 64.8252 7.86 65.2732 8.588V6.376H70.0612V22H65.2732V19.788C64.8065 20.516 64.1532 21.104 63.3132 21.552C62.4918 22 61.5305 22.224 60.4292 22.224C59.1598 22.224 58.0025 21.8973 56.9572 21.244C55.9118 20.572 55.0812 19.6293 54.4652 18.416C53.8678 17.184 53.5692 15.7653 53.5692 14.16ZM65.2732 14.188C65.2732 12.9933 64.9372 12.0507 64.2652 11.36C63.6118 10.6693 62.8092 10.324 61.8572 10.324C60.9052 10.324 60.0932 10.6693 59.4212 11.36C58.7678 12.032 58.4412 12.9653 58.4412 14.16C58.4412 15.3547 58.7678 16.3067 59.4212 17.016C60.0932 17.7067 60.9052 18.052 61.8572 18.052C62.8092 18.052 63.6118 17.7067 64.2652 17.016C64.9372 16.3253 65.2732 15.3827 65.2732 14.188ZM78.3131 1.28V22H73.5251V1.28H78.3131ZM86.9045 12.144C86.9045 10.2027 87.3245 8.476 88.1645 6.964C89.0045 5.43333 90.1711 4.248 91.6645 3.408C93.1765 2.54933 94.8845 2.12 96.7885 2.12C99.1218 2.12 101.119 2.736 102.78 3.968C104.442 5.2 105.552 6.88 106.112 9.008H100.848C100.456 8.18667 99.8965 7.56133 99.1685 7.132C98.4591 6.70267 97.6471 6.488 96.7325 6.488C95.2578 6.488 94.0631 7.00133 93.1485 8.028C92.2338 9.05467 91.7765 10.4267 91.7765 12.144C91.7765 13.8613 92.2338 15.2333 93.1485 16.26C94.0631 17.2867 95.2578 17.8 96.7325 17.8C97.6471 17.8 98.4591 17.5853 99.1685 17.156C99.8965 16.7267 100.456 16.1013 100.848 15.28H106.112C105.552 17.408 104.442 19.088 102.78 20.32C101.119 21.5333 99.1218 22.14 96.7885 22.14C94.8845 22.14 93.1765 21.72 91.6645 20.88C90.1711 20.0213 89.0045 18.836 88.1645 17.324C87.3245 15.812 86.9045 14.0853 86.9045 12.144ZM116.157 22.224C114.626 22.224 113.245 21.8973 112.013 21.244C110.799 20.5907 109.838 19.6573 109.129 18.444C108.438 17.2307 108.093 15.812 108.093 14.188C108.093 12.5827 108.447 11.1733 109.157 9.96C109.866 8.728 110.837 7.78533 112.069 7.132C113.301 6.47867 114.682 6.152 116.213 6.152C117.743 6.152 119.125 6.47867 120.357 7.132C121.589 7.78533 122.559 8.728 123.269 9.96C123.978 11.1733 124.333 12.5827 124.333 14.188C124.333 15.7933 123.969 17.212 123.241 18.444C122.531 19.6573 121.551 20.5907 120.301 21.244C119.069 21.8973 117.687 22.224 116.157 22.224ZM116.157 18.08C117.071 18.08 117.846 17.744 118.481 17.072C119.134 16.4 119.461 15.4387 119.461 14.188C119.461 12.9373 119.143 11.976 118.509 11.304C117.893 10.632 117.127 10.296 116.213 10.296C115.279 10.296 114.505 10.632 113.889 11.304C113.273 11.9573 112.965 12.9187 112.965 14.188C112.965 15.4387 113.263 16.4 113.861 17.072C114.477 17.744 115.242 18.08 116.157 18.08ZM134.713 10.352H132.137V22H127.349V10.352H125.613V6.376H127.349V5.928C127.349 4.00533 127.899 2.54933 129.001 1.56C130.102 0.551999 131.717 0.0479989 133.845 0.0479989C134.199 0.0479989 134.461 0.0573321 134.629 0.0759985V4.136C133.714 4.08 133.07 4.21067 132.697 4.528C132.323 4.84533 132.137 5.41467 132.137 6.236V6.376H134.713V10.352ZM144.803 10.352H142.227V22H137.439V10.352H135.703V6.376H137.439V5.928C137.439 4.00533 137.989 2.54933 139.091 1.56C140.192 0.551999 141.807 0.0479989 143.935 0.0479989C144.289 0.0479989 144.551 0.0573321 144.719 0.0759985V4.136C143.804 4.08 143.16 4.21067 142.787 4.528C142.413 4.84533 142.227 5.41467 142.227 6.236V6.376H144.803V10.352ZM161.78 13.936C161.78 14.384 161.752 14.8507 161.696 15.336H150.86C150.935 16.3067 151.243 17.0533 151.784 17.576C152.344 18.08 153.026 18.332 153.828 18.332C155.023 18.332 155.854 17.828 156.32 16.82H161.416C161.155 17.8467 160.679 18.7707 159.988 19.592C159.316 20.4133 158.467 21.0573 157.44 21.524C156.414 21.9907 155.266 22.224 153.996 22.224C152.466 22.224 151.103 21.8973 149.908 21.244C148.714 20.5907 147.78 19.6573 147.108 18.444C146.436 17.2307 146.1 15.812 146.1 14.188C146.1 12.564 146.427 11.1453 147.08 9.932C147.752 8.71867 148.686 7.78533 149.88 7.132C151.075 6.47867 152.447 6.152 153.996 6.152C155.508 6.152 156.852 6.46933 158.028 7.104C159.204 7.73867 160.119 8.644 160.772 9.82C161.444 10.996 161.78 12.368 161.78 13.936ZM156.88 12.676C156.88 11.8547 156.6 11.2013 156.04 10.716C155.48 10.2307 154.78 9.988 153.94 9.988C153.138 9.988 152.456 10.2213 151.896 10.688C151.355 11.1547 151.019 11.8173 150.888 12.676H156.88ZM179.034 13.936C179.034 14.384 179.006 14.8507 178.95 15.336H168.114C168.189 16.3067 168.497 17.0533 169.038 17.576C169.598 18.08 170.28 18.332 171.082 18.332C172.277 18.332 173.108 17.828 173.574 16.82H178.67C178.409 17.8467 177.933 18.7707 177.242 19.592C176.57 20.4133 175.721 21.0573 174.694 21.524C173.668 21.9907 172.52 22.224 171.25 22.224C169.72 22.224 168.357 21.8973 167.162 21.244C165.968 20.5907 165.034 19.6573 164.362 18.444C163.69 17.2307 163.354 15.812 163.354 14.188C163.354 12.564 163.681 11.1453 164.334 9.932C165.006 8.71867 165.94 7.78533 167.134 7.132C168.329 6.47867 169.701 6.152 171.25 6.152C172.762 6.152 174.106 6.46933 175.282 7.104C176.458 7.73867 177.373 8.644 178.026 9.82C178.698 10.996 179.034 12.368 179.034 13.936ZM174.134 12.676C174.134 11.8547 173.854 11.2013 173.294 10.716C172.734 10.2307 172.034 9.988 171.194 9.988C170.392 9.988 169.71 10.2213 169.15 10.688C168.609 11.1547 168.273 11.8173 168.142 12.676H174.134Z" fill="#F5F7FA"/>
</svg>
